<svg data-name="Layer 1" xmlns="http://www.w3.org/2000/svg" width="570" height="511.67482"><path d="M564.99927 195.67482a.99678.99678 0 01-.5708-.1792L287.86963 2.8921a5.01548 5.01548 0 00-5.72852.00977L7.57434 195.49367a1.00019086 1.00019086 0 01-1.14868-1.6377l274.567-192.5918a7.02216 7.02216 0 018.02-.01318l276.55883 192.603a1.00019 1.00019 0 01-.57226 1.8208z" fill="#3f3d56"/><path fill="#e6e6e6" d="M23.264 202.502L285.276 8.319l264 208-250.5 148.5-136-31L23.264 202.502z"/><path d="M174.25553 456.54108H44.81522a6.04737 6.04737 0 110-12.09473h129.44031a6.04737 6.04737 0 110 12.09473zM91.25553 430.54108H44.81522a6.04737 6.04737 0 110-12.09473h46.44031a6.04737 6.04737 0 110 12.09473z" fill="#20f37e"/><path d="M288.96016 310.65948a7.56366 7.56366 0 01-2.86914-.562L124.5002 243.04864v-209.874a7.00817 7.00817 0 017-7h310a7.00818 7.00818 0 017 7v210.0205l-.30371.12989-156.28027 66.73972a7.61624 7.61624 0 01-2.95606.59473z" fill="#fff"/><path d="M288.96016 311.15899a8.07177 8.07177 0 01-3.05957-.59863L124.0002 243.38262v-210.208a7.50851 7.50851 0 017.5-7.5h310a7.50851 7.50851 0 017.5 7.5V243.5252l-156.8877 66.999a8.10957 8.10957 0 01-3.15234.63479zm-162.96-69.1123l160.66309 66.66455a6.1182 6.1182 0 004.668-.02784l155.669-66.47851V33.17462a5.50653 5.50653 0 00-5.5-5.5h-310a5.50653 5.50653 0 00-5.5 5.5z" fill="#3f3d56"/><path d="M563 193.67482h-.2002L448 242.69484l-157.06982 67.07a5.06614 5.06614 0 01-3.88038.02L125 242.55482l-117.62012-48.8-.17968-.08H7a7.00778 7.00778 0 00-7 7v304a7.00779 7.00779 0 007 7h556a7.00779 7.00779 0 007-7v-304a7.00778 7.00778 0 00-7-7zm5 311a5.002 5.002 0 01-5 5H7a5.002 5.002 0 01-5-5v-304a5.01106 5.01106 0 014.81006-5L125 244.7148l161.28027 66.92a7.12081 7.12081 0 005.43994-.03L448 244.86482l115.2002-49.19a5.01621 5.01621 0 014.7998 5z" fill="#3f3d56"/><path d="M287.345 251.14699a27.49862 27.49862 0 01-16.5459-5.4961l-.2959-.22217-62.311-47.70752a27.68337069 27.68337069 0 1133.67407-43.94921l40.36035 30.94775 95.37793-124.38672a27.68235 27.68235 0 0138.81323-5.12353l-.593.80517.6084-.79346a27.71447 27.71447 0 015.12353 38.81348L309.36938 240.34327a27.69447 27.69447 0 01-22.02438 10.80372z" fill="#20f37e"/></svg>